<?xml version="1.0" encoding="utf-8"?>
<!-- Generator: Adobe Illustrator 24.0.1, SVG Export Plug-In . SVG Version: 6.00 Build 0)  -->
<svg version="1.1" id="Layer_1" xmlns="http://www.w3.org/2000/svg" xmlns:xlink="http://www.w3.org/1999/xlink" x="0px" y="0px"
	 viewBox="0 0 196 187" style="enable-background:new 0 0 196 187;" xml:space="preserve">
<style type="text/css">
	.st0{fill:#FFFFFF;}
</style>
<g>
	<path class="st0" d="M169.19,183.69H26.8c-8.95,0-15.84-3.27-19.41-9.19c-3.56-5.93-3.21-13.55,0.99-21.45v0l73-137.35
		C85.63,7.71,91.56,3.31,98.07,3.31c0,0,0,0,0,0c6.52,0,12.45,4.4,16.68,12.39l72.86,137.33c4.2,7.91,4.54,15.53,0.97,21.46
		C185.03,180.42,178.14,183.69,169.19,183.69z M98.07,11.31c-3.37,0-6.88,2.96-9.62,8.13l-73,137.35
		c-2.83,5.33-3.26,10.15-1.2,13.57c2.06,3.43,6.52,5.32,12.55,5.32h142.39c6.03,0,10.49-1.89,12.56-5.32
		c2.06-3.43,1.64-8.25-1.19-13.58L107.7,19.45C104.95,14.28,101.45,11.32,98.07,11.31C98.08,11.31,98.07,11.31,98.07,11.31z"/>
	<path class="st0" d="M85.55,64.4c-0.62-3.32,1.61-6.02,4.99-6.02h14.03c3.38,0,5.65,2.7,5.06,6.03l-10.6,60.47
		c-0.58,3.33-1.56,3.33-2.18,0.01L85.55,64.4z"/>
	<path class="st0" d="M97.6,160.35c6.08,0,11.02-4.93,11.02-11.02c0-6.08-4.93-11.01-11.02-11.01c-6.08,0-11.02,4.93-11.02,11.01
		C86.58,155.42,91.51,160.35,97.6,160.35"/>
</g>
</svg>
