<?xml version="1.0" encoding="utf-8"?>
<!-- Generator: Adobe Illustrator 24.0.1, SVG Export Plug-In . SVG Version: 6.00 Build 0)  -->
<svg version="1.1" id="Layer_1" xmlns="http://www.w3.org/2000/svg" xmlns:xlink="http://www.w3.org/1999/xlink" x="0px" y="0px"
	 viewBox="0 0 236 230" style="enable-background:new 0 0 236 230;" xml:space="preserve">
<style type="text/css">
	.st0{fill:#FFFFFF;}
</style>
<g>
	<g>
		<path class="st0" d="M118,225.95c-55.96,0-101.49-45.53-101.49-101.49S62.04,22.97,118,22.97S219.49,68.5,219.49,124.46
			S173.96,225.95,118,225.95z M118,30.97c-51.55,0-93.49,41.94-93.49,93.49s41.94,93.49,93.49,93.49s93.49-41.94,93.49-93.49
			S169.55,30.97,118,30.97z"/>
	</g>
	<path class="st0" d="M114.01,171.05c-3.25,0-6.43-1.58-8.36-4.5l-31-47c-3.04-4.61-1.77-10.81,2.84-13.85
		c4.61-3.04,10.81-1.77,13.85,2.84l31,47c3.04,4.61,1.77,10.81-2.84,13.85C117.81,170.51,115.9,171.05,114.01,171.05z"/>
	<g>
		<path class="st0" d="M113.99,171.05c-1.6,0-3.22-0.38-4.72-1.19c-4.87-2.61-6.69-8.68-4.08-13.54l79-147
			c2.61-4.86,8.68-6.69,13.54-4.07c4.87,2.61,6.69,8.68,4.08,13.54l-79,147C121,169.14,117.55,171.05,113.99,171.05z"/>
	</g>
</g>
</svg>
